<svg width="274" height="205" viewBox="0 0 274 205" fill="none" xmlns="http://www.w3.org/2000/svg">
<path d="M15.6 41H7.6V88H15.6V65.7C15.6 57.3 16.3 47.1 27.3 47.1C36.6 47.1 37.2 53.9 37.2 61.5V88H45.2V60.1C45.2 49.1 42.2 39.7 29.2 39.7C23.4 39.7 19.1 42.2 15.8 46.7H15.6V41ZM80.932 89.3C94.632 89.3 105.632 78.4 105.632 64.6C105.632 50.8 94.732 39.7 80.932 39.7C67.132 39.7 56.232 50.8 56.232 64.6C56.232 78.4 67.232 89.3 80.932 89.3ZM80.932 47.1C90.832 47.1 97.632 55 97.632 64.5C97.632 74.1 90.832 81.9 80.932 81.9C71.032 81.9 64.232 74.1 64.232 64.5C64.232 55 71.032 47.1 80.932 47.1ZM136.084 47.1C145.984 47.1 151.884 54.7 151.884 64.1C151.884 73.6 146.484 81.9 136.184 81.9C126.184 81.9 120.784 73.2 120.784 64C120.784 55.2 126.784 47.1 136.084 47.1ZM151.484 88H159.484V5.5H151.484V47.7H151.284C147.484 42.7 141.484 39.7 135.184 39.7C121.084 39.7 112.584 51.2 112.584 64.6C112.584 77.6 121.284 89.3 135.084 89.3C141.484 89.3 147.384 86.6 151.284 81.5H151.484V88ZM183.799 41H175.799V88H183.799V41ZM179.799 17.6C176.699 17.6 174.099 20.2 174.099 23.3C174.099 26.5 176.699 29 179.799 29C182.899 29 185.499 26.5 185.499 23.3C185.499 20.2 182.899 17.6 179.799 17.6ZM208.871 48.4H217.271V41H208.871V24.1H200.871V41H195.971V48.4H200.871V88H208.871V48.4ZM244.995 89.3C258.695 89.3 269.695 78.4 269.695 64.6C269.695 50.8 258.795 39.7 244.995 39.7C231.195 39.7 220.295 50.8 220.295 64.6C220.295 78.4 231.295 89.3 244.995 89.3ZM244.995 47.1C254.895 47.1 261.695 55 261.695 64.5C261.695 74.1 254.895 81.9 244.995 81.9C235.095 81.9 228.295 74.1 228.295 64.5C228.295 55 235.095 47.1 244.995 47.1ZM15.4 105.5H7.4V188H15.4V105.5ZM49.7563 147.1C59.6563 147.1 65.5563 154.7 65.5563 164.1C65.5563 173.6 60.1563 181.9 49.8563 181.9C39.8563 181.9 34.4563 173.2 34.4563 164C34.4563 155.2 40.4563 147.1 49.7563 147.1ZM73.1562 141H65.1563V147.7H64.9563C61.0563 142.7 55.2563 139.7 48.8563 139.7C34.7563 139.7 26.2563 151.2 26.2563 164.6C26.2563 177.6 34.9563 189.3 48.7563 189.3C55.3563 189.3 60.8563 186.7 64.9563 181.5H65.1563V188H73.1562V141ZM110.471 147.1C120.371 147.1 126.271 154.7 126.271 164.1C126.271 173.6 120.871 181.9 110.571 181.9C100.571 181.9 95.1711 173.2 95.1711 164C95.1711 155.2 101.171 147.1 110.471 147.1ZM87.5711 188H95.5711V181.5H95.7711C99.5711 186.6 105.471 189.3 111.971 189.3C125.771 189.3 134.471 177.6 134.471 164.5C134.471 151.2 125.871 139.7 111.871 139.7C105.471 139.7 99.5711 142.7 95.7711 147.7H95.5711V105.5H87.5711V188ZM171.386 148.4C169.286 143.5 164.286 139.7 158.886 139.7C151.286 139.7 144.886 145.1 144.886 153C144.886 167.8 166.086 164.2 166.086 174.7C166.086 179 162.786 181.9 158.486 181.9C153.186 181.9 150.886 178.8 148.886 174.4L141.786 177.4C144.286 184.8 150.486 189.3 158.386 189.3C167.086 189.3 174.286 182.9 174.286 174C174.286 166.1 168.886 162.8 163.386 160.5C157.886 158.2 152.486 156.6 152.486 152.3C152.486 149.3 155.486 147.1 158.286 147.1C161.186 147.1 163.586 149.4 164.686 151.9L171.386 148.4Z" fill="white"/>
<rect x="209.625" y="129.125" width="35.25" height="35.25" stroke="white" stroke-width="6"/>
<rect x="230.25" y="108.5" width="35.25" height="35.25" stroke="#35D07F" stroke-width="6"/>
<rect x="189" y="149.75" width="35.25" height="35.25" stroke="#FBCC5C" stroke-width="6"/>
</svg>
